#!OML:ASF C:\Vicon Data\Big\jianyuan-13\jianyuan\Session 1\Capture.male.ASF
:FULLY-SPECIFIED
:DEGREES
153
root -6.590732 17.580316 -13.284654 9.636373 6.640730 3.273266
lowerback -13.401350 1.199544 -4.711375 
upperback 1.303975 2.540195 -1.893035 
thorax 8.831405 1.048022 1.156992 
lowerneck -7.132346 -2.936897 2.402186 
upperneck 1.990842 -4.051819 -1.977564 
head 1.748828 -2.050555 -1.179061 
rclavicle 0.000000 0.000000 
rhumerus -35.850101 -12.190210 -86.628405 
rradius 32.733120 
rwrist 23.914652 
rhand -17.264952 -17.608076 
rfingers 0.000000 
rthumb 8.979693 -47.396969 
lclavicle 0.000000 0.000000 
lhumerus -49.567510 40.475490 56.893479 
lradius 22.503712 
lwrist -67.861035 
lhand -20.288427 0.299459 
lfingers 0.000000 
lthumb 6.061344 30.192776 
rfemur -8.386424 -7.473259 17.111846 
rtibia 47.617872 
rfoot -5.266093 -4.024741 
rtoes -31.935190 
lfemur -20.435240 -1.035968 -25.411946 
ltibia 18.700927 
lfoot -7.179288 2.787360 
ltoes -32.881168 
154
root -6.565348 17.581862 -13.234799 9.659464 6.611346 3.376893
lowerback -13.322533 1.146839 -4.812866 
upperback 1.275796 2.482179 -1.919117 
thorax 8.755735 1.018191 1.171720 
lowerneck -7.037050 -2.912060 2.281070 
upperneck 1.847455 -4.011021 -1.873640 
head 1.689925 -2.028806 -1.118959 
rclavicle 0.000000 0.000000 
rhumerus -36.194252 -12.439744 -86.376054 
rradius 32.489363 
rwrist 24.101715 
rhand -17.134515 -17.638729 
rfingers 0.000000 
rthumb 9.105560 -47.422188 
lclavicle 0.000000 0.000000 
lhumerus -49.397504 40.840636 56.887033 
lradius 22.435042 
lwrist -68.392996 
lhand -20.311395 0.264568 
lfingers 0.000000 
lthumb 6.039167 30.158457 
rfemur -9.238145 -8.034035 16.916224 
rtibia 49.008118 
rfoot -5.206941 -4.613662 
rtoes -32.425016 
lfemur -20.259342 -1.061911 -25.574429 
ltibia 18.750423 
lfoot -7.445593 2.629912 
ltoes -32.892916 
155
root -6.541755 17.574731 -13.184703 9.673866 6.538057 3.487879
lowerback -13.280219 1.107358 -4.948865 
upperback 1.275182 2.449971 -1.933197 
thorax 8.728068 0.997230 1.225251 
lowerneck -7.022905 -2.898494 2.213532 
upperneck 1.722301 -3.986721 -1.899555 
head 1.648050 -2.018263 -1.112182 
rclavicle 0.000000 0.000000 
rhumerus -36.556250 -12.720130 -86.075222 
rradius 32.294362 
rwrist 24.373851 
rhand -17.032706 -17.579701 
rfingers 0.000000 
rthumb 9.203779 -47.358859 
lclavicle 0.000000 0.000000 
lhumerus -48.893832 40.806992 57.389332 
lradius 22.463926 
lwrist -68.276765 
lhand -20.251542 0.271288 
lfingers 0.000000 
lthumb 6.096953 30.163569 
rfemur -10.072069 -8.632435 16.688314 
rtibia 50.382040 
rfoot -5.425442 -5.269559 
rtoes -32.918887 
lfemur -20.069808 -0.832280 -25.813947 
ltibia 18.778429 
lfoot -7.561454 2.327631 
ltoes -33.568293 
156
root -6.517606 17.570650 -13.136116 9.688989 6.475447 3.583868
lowerback -13.220609 1.051395 -5.048474 
upperback 1.276974 2.389344 -1.954545 
thorax 8.696518 0.964629 1.244506 
lowerneck -6.963718 -2.852387 2.141734 
upperneck 1.547294 -3.919644 -1.890522 
head 1.583700 -1.985451 -1.090350 
rclavicle 0.000000 0.000000 
rhumerus -36.860952 -13.028841 -85.739442 
rradius 31.918331 
rwrist 25.165112 
rhand -17.127666 -17.438024 
rfingers 0.000000 
rthumb 9.112163 -47.221146 
lclavicle 0.000000 0.000000 
lhumerus -48.443445 40.859670 57.756178 
lradius 22.437768 
lwrist -68.319372 
lhand -20.245148 0.157351 
lfingers 0.000000 
lthumb 6.103126 30.049437 
rfemur -10.912934 -9.111739 16.499523 
rtibia 51.713682 
rfoot -5.976263 -6.395506 
rtoes -31.555110 
lfemur -19.909053 -0.653619 -26.013440 
ltibia 18.832827 
lfoot -7.727416 2.049344 
ltoes -33.841407 
157
root -6.493311 17.566179 -13.088769 9.674204 6.447677 3.609961
lowerback -13.158880 1.009458 -5.068577 
upperback 1.316071 2.334654 -1.957357 
thorax 8.706199 0.936656 1.240535 
lowerneck -6.941116 -2.818755 2.122072 
upperneck 1.333849 -3.873329 -1.924076 
head 1.511542 -1.963794 -1.091812 
rclavicle 0.000000 0.000000 
rhumerus -37.123613 -13.221808 -85.422231 
rradius 31.623102 
rwrist 25.817164 
rhand -17.148474 -17.278996 
rfingers 0.000000 
rthumb 9.092102 -47.062995 
lclavicle 0.000000 0.000000 
lhumerus -47.928618 41.042158 58.120253 
lradius 22.400309 
lwrist -68.555553 
lhand -20.407466 0.323809 
lfingers 0.000000 
lthumb 5.946475 30.220368 
rfemur -11.690061 -9.619425 16.409941 
rtibia 52.958881 
rfoot -6.695180 -7.490518 
rtoes -30.583099 
lfemur -19.717636 -0.665225 -26.097739 
ltibia 18.877767 
lfoot -7.956307 1.922257 
ltoes -34.013302 
158
root -6.470425 17.564859 -13.044060 9.653409 6.442578 3.661983
lowerback -13.052542 0.957756 -5.137973 
upperback 1.345581 2.272109 -1.971243 
thorax 8.679080 0.903945 1.249634 
lowerneck -6.961436 -2.791432 2.154639 
upperneck 1.194456 -3.838991 -1.996363 
head 1.469294 -1.948539 -1.117186 
rclavicle 0.000000 0.000000 
rhumerus -37.427860 -13.379963 -85.231309 
rradius 31.511928 
rwrist 25.946861 
rhand -17.042434 -17.284997 
rfingers 0.000000 
rthumb 9.194382 -47.064548 
lclavicle 0.000000 0.000000 
lhumerus -47.225438 40.918401 58.790675 
lradius 22.435450 
lwrist -68.245356 
lhand -20.340293 0.369843 
lfingers 0.000000 
lthumb 6.011287 30.264542 
rfemur -12.498853 -10.130090 16.306962 
rtibia 54.078744 
rfoot -7.339676 -8.515581 
rtoes -28.922014 
lfemur -19.503970 -0.552704 -26.236024 
ltibia 18.865442 
lfoot -8.082888 1.733811 
ltoes -34.364155 
159
root -6.444850 17.564276 -12.992250 9.533394 6.349507 3.814603
lowerback -12.932159 0.924171 -5.292402 
upperback 1.418450 2.250582 -2.011549 
thorax 8.687286 0.886095 1.286355 
lowerneck -6.860062 -2.737801 2.159363 
upperneck 0.938641 -3.767934 -2.014393 
head 1.370446 -1.913651 -1.114791 
rclavicle 0.000000 0.000000 
rhumerus -37.690404 -13.568146 -85.003482 
rradius 31.263742 
rwrist 26.257830 
rhand -17.059350 -17.237542 
rfingers 0.000000 
rthumb 9.178084 -47.017797 
lclavicle 0.000000 0.000000 
lhumerus -46.595473 40.891098 59.343630 
lradius 22.448079 
lwrist -67.915583 
lhand -20.539431 0.438546 
lfingers 0.000000 
lthumb 5.819024 30.338645 
rfemur -13.117154 -10.505238 16.032131 
rtibia 55.038470 
rfoot -8.034616 -9.503156 
rtoes -26.569683 
lfemur -19.081725 -0.507590 -26.485896 
ltibia 18.780688 
lfoot -8.300917 1.651855 
ltoes -34.304197 
160
root -6.418760 17.564306 -12.942654 9.376821 6.331084 3.841425
lowerback -12.773202 0.881958 -5.305038 
upperback 1.505609 2.189084 -2.009460 
thorax 8.694051 0.854528 1.280280 
lowerneck -6.830807 -2.687819 2.201323 
upperneck 0.729564 -3.704310 -2.086883 
head 1.298021 -1.883569 -1.138760 
rclavicle 0.000000 0.000000 
rhumerus -37.949672 -13.560000 -84.819126 
rradius 31.088425 
rwrist 26.501286 
rhand -17.146855 -17.235097 
rfingers 0.000000 
rthumb 9.093670 -47.018968 
lclavicle 0.000000 0.000000 
lhumerus -45.955427 40.860345 59.942690 
lradius 22.526513 
lwrist -67.692390 
lhand -20.488283 0.229265 
lfingers 0.000000 
lthumb 5.868406 30.127953 
rfemur -13.664313 -10.873952 15.915694 
rtibia 55.861732 
rfoot -8.743041 -10.476845 
rtoes -25.803228 
lfemur -18.636743 -0.543115 -26.588196 
ltibia 18.678907 
lfoot -8.513644 1.615620 
ltoes -34.282092 
161
root -6.397403 17.565407 -12.896169 9.376442 6.354128 3.890652
lowerback -12.749505 0.810128 -5.371636 
upperback 1.552980 2.104071 -2.002660 
thorax 8.734841 0.808323 1.307948 
lowerneck -6.800367 -2.660162 2.122731 
upperneck 0.525333 -3.662924 -2.075815 
head 1.229703 -1.863236 -1.116539 
rclavicle 0.000000 0.000000 
rhumerus -38.205621 -13.881526 -84.508501 
rradius 30.815559 
rwrist 27.019224 
rhand -17.311603 -16.963831 
rfingers 0.000000 
rthumb 8.934628 -46.754600 
lclavicle 0.000000 0.000000 
lhumerus -45.463279 41.337502 60.169920 
lradius 22.418388 
lwrist -67.814349 
lhand -20.313994 0.133188 
lfingers 0.000000 
lthumb 6.036682 30.027224 
rfemur -14.438065 -11.299437 15.836461 
rtibia 56.609632 
rfoot -9.284170 -11.321623 
rtoes -25.252523 
lfemur -18.421330 -0.619306 -26.694476 
ltibia 18.645627 
lfoot -8.700105 1.598044 
ltoes -34.314036 
